PathFileType	4	(X/Y/Z)	Captury_Subj1_walk03.trc
DataRate	CameraRate	NumFrames	NumMarkers	Units	OrigDataRate	OrigDataStartFrame	OrigNumFrames
100.0	100.0	8	47	mm	59.99879837036133	26	121
Frame#	Time		LeftUpLeg_		RightUpLeg_		LeftLeg_		RightLeg_		LeftFoot_		RightFoot_		LeftToeBase_		RightToeBase_		Knee_Lateral_r		Knee_Lateral_l		Ankle_Lateral_r		Ankle_Lateral_l		LeftArm_		LeftForeArm_		LeftHand_		LeftHandEE		RightArm_		RightForeArm_		RightHand_		RightHandEE		Spine_		Spine1_		Spine2_		Spine3_		Spine4_		Spine5_		Spine_x		Spine_y		Spine_z		RASI		LASI		RIPS		LIPS		RTHI		LTHI		RTIB		LTIB		RTOE		LTOE		RHEE		LHEE		RHipAngles		LHipAngles		RKneeAngles		LKneeAngles		RAnkleAngles		LAnkleAngles
			X1	Y1	Z1	X2	Y2	Z2	X3	Y3	Z3	X4	Y4	Z4	X5	Y5	Z5	X6	Y6	Z6	X7	Y7	Z7	X8	Y8	Z8	X9	Y9	Z9	X10	Y10	Z10	X11	Y11	Z11	X12	Y12	Z12	X13	Y13	Z13	X14	Y14	Z14	X15	Y15	Z15	X16	Y16	Z16	X17	Y17	Z17	X18	Y18	Z18	X19	Y19	Z19	X20	Y20	Z20	X21	Y21	Z21	X22	Y22	Z22	X23	Y23	Z23	X24	Y24	Z24	X25	Y25	Z25	X26	Y26	Z26	X27	Y27	Z27	X28	Y28	Z28	X29	Y29	Z29	X30	Y30	Z30	X31	Y31	Z31	X32	Y32	Z32	X33	Y33	Z33	X34	Y34	Z34	X35	Y35	Z35	X36	Y36	Z36	X37	Y37	Z37	X38	Y38	Z38	X39	Y39	Z39	X40	Y40	Z40	X41	Y41	Z41	X42	Y42	Z42	X43	Y43	Z43	X44	Y44	Z44	X45	Y45	Z45	X46	Y46	Z46	X47	Y47	Z47

26	0.25000	1052.17578	825.74872	116.99194	1064.20740	833.48779	-48.34195	943.51868	443.04660	91.99540	996.47211	440.70029	-53.02931	991.76544	78.42273	83.00809	1289.43042	218.89619	-34.66108	877.06799	24.36096	87.49020	1300.64636	92.88017	-44.27560	999.95929	438.27634	-98.58420	939.59857	438.76682	137.37822	1298.40222	233.73132	-80.78809	1006.06012	75.62820	130.08386	1062.99915	1309.67737	173.31357	1089.09167	1042.48560	238.87657	1080.44385	814.61029	288.90445	1093.57581	730.43079	289.78091	1058.91711	1312.53650	-90.33267	1062.07935	1046.14136	-163.77917	924.54883	858.86035	-186.49278	880.47852	787.45123	-171.72966	1088.10449	917.35913	40.60883	1079.78149	1015.38446	43.09628	1094.74292	1085.70605	44.19905	1129.51257	1170.21179	43.40729	1124.22156	1303.20471	39.52532	4185915979477856304811803089567744.00000	0.00000	4185920931238013446332902686064640.00000	1091.47925	919.52985	-5.76554	1094.12231	963.44312	43.20388	1134.13794	911.17554	43.66932	984.13770	911.06146	-107.41649	963.88922	898.03717	170.82970	1114.81372	887.73517	3.78860	1109.41406	884.26202	77.98758	1040.34082	645.86383	-114.98477	998.58759	639.89758	169.91930	1121.95007	328.16409	-81.55904	950.80194	220.40710	118.50107	1294.62463	21.78841	-49.41325	805.54028	25.05150	87.50552	1363.38989	245.84435	-34.37572	1042.59277	18.50668	87.79863	-1.22891	-5.60798	1.07801	-7.50989	-2.80283	-0.03970	-56.99644	-0.63235	0.04541	-17.68382	0.19331	0.05895	25.99246	5.57625	8.05873	1.70069	5.57199	9.38129
27	0.26000	1039.11626	828.05515	117.68341	1050.28640	835.27699	-47.73227	939.96482	442.86133	92.73618	970.11093	445.00616	-54.27967	991.76614	78.76444	82.74606	1257.26604	216.00605	-34.25218	877.11370	24.63204	87.51142	1262.12954	89.73883	-44.45168	973.84091	442.61729	-99.81673	936.23346	438.47295	138.12419	1267.40107	230.54283	-80.22241	1006.23132	75.83587	129.76121	1048.91240	1311.96392	173.67380	1070.97456	1044.68872	240.28049	1055.91042	816.92178	288.97725	1067.17830	732.48384	289.27576	1045.69609	1314.60127	-89.98314	1052.33000	1047.95630	-162.21981	922.82632	855.50315	-187.33283	882.17997	782.07760	-173.00396	1074.69165	919.40936	40.83135	1066.40747	1017.47516	43.15434	1081.37710	1087.83066	44.16083	1116.12749	1172.37881	43.34946	1110.77773	1305.41025	39.73602	4185915979477856304811803089567744.00000	0.00000	4185920931238013446332902686064640.00000	1077.82478	921.43499	-5.56596	1080.74668	965.49771	43.25230	1120.73689	913.21031	43.67009	969.94937	912.71099	-106.62613	951.15079	900.55714	171.75769	1101.19229	889.65745	3.96418	1096.17927	886.41641	78.19987	1020.92692	648.78813	-115.20162	990.26021	640.95417	170.63598	1092.94243	329.47083	-82.13792	949.50848	220.25033	118.68936	1252.54385	19.13520	-50.03511	805.58628	25.34518	87.60041	1332.42969	239.11895	-33.12545	1042.64287	18.89934	87.64655	-3.02877	-5.22535	1.78933	-6.06768	-3.12157	-0.09850	-57.40675	-0.69119	0.05404	-16.81745	0.14957	0.02900	24.47759	5.61341	8.03868	1.18175	5.46322	9.73060
28	0.27000	1026.44105	830.03959	118.21423	1036.46055	837.02892	-47.28299	936.26361	442.59180	93.41584	944.10808	449.42825	-55.29795	991.82834	79.06906	82.70293	1224.61492	212.47056	-33.96737	877.28760	24.73681	87.84402	1222.75505	86.16188	-44.73575	948.05377	447.02896	-100.81655	932.79530	438.09847	138.81392	1235.88845	226.64513	-79.78903	1006.53314	76.07615	129.63923	1034.94335	1314.17437	174.01758	1052.77991	1046.83315	241.63015	1031.35881	819.28939	289.08325	1040.56654	734.60385	288.77794	1032.53613	1316.56658	-89.63895	1042.48948	1049.69832	-160.69086	921.20411	852.22974	-188.17918	884.05336	776.87916	-174.24205	1061.40552	921.31179	40.98748	1053.08215	1019.42701	43.28917	1068.02617	1089.84285	44.22781	1102.74058	1174.45984	43.36587	1097.32961	1307.54766	39.97299	4185915979477856304811803089567744.00000	0.00000	4185920931238013446332902686064640.00000	1064.21589	923.27219	-5.43269	1067.43774	967.40881	43.30013	1107.47378	915.15662	43.51662	955.65347	914.30730	-105.73056	938.79139	902.54475	172.79050	1087.67544	891.52881	3.98123	1083.17883	888.39211	78.25352	1001.69171	651.68451	-115.39568	982.17251	641.80157	171.24048	1063.83748	330.57419	-82.63790	948.24395	220.05782	119.01925	1209.42266	16.19855	-50.74355	805.76005	25.37999	88.04971	1300.90959	231.49308	-32.07922	1042.82644	19.31653	87.70948	-4.86108	-4.95635	2.58640	-4.77469	-3.33975	-0.18558	-57.60534	-0.69348	0.06071	-16.06923	0.15916	-0.00345	22.97785	5.63506	7.99617	0.69782	5.30657	10.04739
29	0.28000	1014.53447	831.38003	118.42376	1022.82498	838.70631	-47.15450	932.26770	442.15374	93.97327	918.82191	454.08277	-55.85211	992.01357	79.29948	83.09758	1190.99031	207.64440	-33.93071	877.71790	24.50898	88.79936	1181.66523	81.71369	-45.23580	922.92914	451.58206	-101.35096	929.21105	437.56278	139.39116	1203.35288	221.32900	-79.62024	1007.09619	76.38164	129.91859	1021.20967	1316.23262	174.32845	1034.43018	1048.86021	242.87131	1006.77083	821.76926	289.25565	1013.52629	736.85776	288.29478	1019.49829	1318.33296	-89.30545	1032.46658	1051.29448	-159.22274	919.78252	849.12390	-189.03812	886.27062	772.03112	-175.40769	1048.37280	922.91862	41.01086	1039.85425	1021.10118	43.57751	1054.70503	1091.63018	44.50520	1089.35000	1176.36890	43.53075	1083.87290	1309.54878	40.26249	4185915979477856304811803089567744.00000	0.00000	4185920931238013446332902686064640.00000	1050.69817	924.97354	-5.43205	1054.26221	969.03296	43.34680	1094.48655	916.92596	43.05465	941.14243	915.79719	-104.62456	927.19005	903.46764	174.03291	1074.36777	893.29834	3.68124	1070.64709	890.01047	77.98990	982.81390	654.52502	-115.54418	974.56418	642.23059	171.62063	1034.53789	331.27081	-82.98005	947.03724	219.79384	119.63234	1164.22065	12.69501	-51.62514	806.18936	24.89707	89.20786	1268.26973	222.06628	-31.44109	1043.27695	19.78277	88.20246	-6.75828	-4.91462	3.55498	-3.78014	-3.35682	-0.32923	-57.38050	-0.58264	0.06347	-15.55730	0.27540	-0.04088	21.50835	5.62569	7.90870	0.28389	5.05418	10.29914
30	0.29000	1002.22523	832.85526	118.60734	1008.53477	840.35880	-47.04552	929.08976	441.81909	94.77257	894.37524	458.64445	-56.47431	991.98652	79.51636	83.18131	1156.36443	201.62441	-34.18879	877.81873	24.52160	89.45330	1139.06428	76.67736	-46.05209	898.59620	456.06894	-101.95867	926.53092	437.16030	140.21303	1169.83025	214.70639	-79.73749	1007.55143	76.59980	129.84276	1007.50238	1317.95913	174.57453	1015.99243	1050.68657	244.20111	981.98044	824.24501	289.40464	986.20599	739.19039	287.79681	1006.69705	1319.83889	-89.00627	1022.19189	1052.69397	-158.00167	918.47479	846.13145	-189.77474	888.69200	767.46720	-176.61584	1035.16494	924.46672	40.89291	1026.69624	1022.69227	43.68430	1041.56162	1093.26477	44.57744	1076.18896	1178.05603	43.48946	1070.65164	1311.28389	40.44806	4185915979477856304811803089567744.00000	0.00000	4185920931238013446332902686064640.00000	1036.93467	926.57136	-5.57093	1041.09771	970.57659	43.20634	1081.29639	918.45630	42.37785	926.19917	917.53979	-103.45052	915.58060	904.91191	175.33249	1060.70000	894.87825	3.22474	1057.86833	891.51082	77.56688	963.91312	657.35753	-115.74612	967.24648	642.83129	172.09984	1005.19697	331.45076	-83.49853	946.10083	219.59088	120.19895	1117.28120	8.99167	-52.83208	806.29191	24.82205	90.13066	1234.33679	211.03635	-31.11191	1043.38293	20.10959	88.23304	-8.23229	-4.73948	4.50433	-2.38248	-3.38103	-0.46055	-56.62280	-0.52320	0.06309	-14.70236	0.31127	-0.06707	20.10504	5.58864	7.79132	-0.09623	4.71480	10.51174
31	0.30000	989.71466	834.39789	118.77794	993.91724	841.99884	-46.94629	926.32080	441.53613	95.69281	870.34833	463.15970	-57.13053	991.85333	79.72647	83.10959	1121.23792	195.00751	-34.59425	877.75482	24.65445	89.95653	1095.70776	71.34697	-47.02650	874.65912	460.52271	-102.60303	924.30286	436.82443	141.15721	1135.81409	207.43053	-79.99777	1007.95276	76.77430	129.58936	993.80829	1319.51978	174.78822	997.51068	1052.41260	245.57523	957.08887	826.71869	289.54193	958.74567	741.56238	287.29144	994.01410	1321.21460	-88.72424	1011.79132	1053.99512	-156.90411	917.22400	843.19568	-190.45021	891.21545	763.04535	-177.84525	1021.86951	925.98547	40.70430	1013.57318	1024.24182	43.70031	1028.50708	1094.82300	44.54710	1063.14270	1179.63220	43.34509	1057.54810	1312.88599	40.58167	4185915979477856304811803089567744.00000	0.00000	4185920931238013446332902686064640.00000	1023.04828	928.11743	-5.77955	1027.93872	972.07996	42.97233	1068.00476	919.86713	41.59363	911.03979	919.40875	-102.24246	903.96710	906.61688	176.66064	1046.85217	896.36334	2.69000	1044.96606	892.95215	77.06416	945.00085	660.18604	-115.97478	960.07410	643.51782	172.62857	975.83539	331.37238	-84.10516	945.29956	219.41844	120.74231	1069.47302	5.18844	-54.20170	806.23108	24.95098	90.93578	1199.75732	199.20485	-30.93722	1043.31665	20.36670	88.03242	-9.49471	-4.49763	5.44408	-0.78327	-3.40882	-0.58569	-55.59867	-0.48946	0.06114	-13.67590	0.30697	-0.08763	18.73482	5.53775	7.65897	-0.45946	4.33191	10.70474
32	0.31000	979.38638	834.91890	118.97355	980.16598	842.47576	-46.78056	922.32515	441.09276	96.40149	847.05010	466.99254	-57.55368	991.63705	80.03672	82.87563	1085.54890	188.05518	-35.38774	877.76475	24.55029	90.11254	1052.02129	66.55251	-48.24877	851.30515	464.31423	-103.02897	920.80730	436.35151	141.88042	1101.03452	199.69245	-80.68759	1008.24397	77.11310	129.17621	980.29543	1320.95093	174.87837	978.91270	1054.14346	246.74330	931.78842	829.59429	289.52087	930.63330	744.48192	286.62197	981.32006	1322.17700	-88.65047	1001.38427	1054.84136	-155.69916	916.07549	840.59858	-191.19012	893.51456	759.34717	-179.38048	1009.36069	926.67325	40.25305	1000.70823	1025.00581	43.46352	1015.43859	1095.74856	44.16304	1049.88455	1180.74915	42.68567	1044.07666	1314.11594	40.30317	4185915979477856304811803089567744.00000	0.00000	4185920931238013446332902686064640.00000	1009.57937	928.79287	-6.23918	1015.18231	972.80549	42.38705	1055.53528	920.84674	40.20412	895.70490	919.33646	-100.38662	894.39277	906.61871	178.56676	1033.74739	897.19369	1.74950	1033.39746	893.80227	76.13707	926.68130	662.10392	-116.08910	953.42513	643.59370	173.05805	946.54346	330.80057	-84.73744	943.95703	219.18735	121.08264	1021.53557	2.38783	-55.69610	806.24375	24.65543	91.28769	1164.04612	187.06154	-31.45337	1043.33401	20.87465	87.72288	-11.31161	-4.01526	6.59587	-0.16700	-3.51496	-1.17482	-54.49578	-0.52140	0.05580	-13.34063	0.28133	-0.08073	17.52267	5.44989	7.55750	-0.83202	3.90436	10.86802
33	0.32000	969.24218	835.33408	118.98949	966.53416	842.95574	-46.74727	918.28976	440.62285	96.98402	824.18357	470.84258	-57.79254	991.46166	80.35543	82.67757	1049.02777	180.73313	-36.34659	877.81868	24.45486	90.32434	1007.35325	61.78614	-49.62624	828.34220	468.10546	-103.27308	917.25046	435.86888	142.47599	1065.36213	191.52857	-81.56035	1008.55605	77.48234	128.80455	966.66542	1322.13289	174.93670	960.39672	1055.69326	247.95453	906.44337	832.41616	289.38539	902.08402	747.43391	286.02360	968.67466	1322.93538	-88.60439	991.00200	1055.52131	-154.63124	914.89146	838.08560	-191.94963	895.74009	755.82604	-180.97766	996.91910	927.33053	39.70920	987.85520	1025.68086	43.20147	1002.35175	1096.53972	43.78350	1036.58998	1181.68723	42.05432	1030.56642	1315.11638	40.05894	4185915979477856304811803089567744.00000	0.00000	4185920931238013446332902686064640.00000	996.15955	929.46833	-6.77816	1002.45154	973.50266	41.74574	1043.12498	921.83817	38.70154	880.42699	919.22236	-98.55641	884.98429	906.39554	180.36776	1020.71548	898.04208	0.69278	1021.93075	894.62158	75.07256	908.56957	664.00912	-116.19324	946.82421	643.62302	173.33203	917.05632	330.12598	-85.33693	942.61245	218.96225	121.38583	972.57134	-0.14891	-57.31727	806.30110	24.35510	91.69595	1127.29331	174.40680	-32.27685	1043.39351	21.39488	87.47153	-13.13796	-3.57440	7.72909	0.36556	-3.55792	-1.81757	-53.15389	-0.51918	0.04750	-13.05411	0.26130	-0.06952	16.39092	5.35703	7.48825	-1.21812	3.49899	11.02565
